<svg xmlns="http://www.w3.org/2000/svg" viewBox="0 0 210 297" width="210" height="297">
  <rect width="210" height="297" fill="#ffffff"/>
  <rect x="15" y="15" width="80" height="8" rx="2" fill="#1e293b"/>
  <rect x="15" y="28" width="50" height="4" rx="1" fill="#64748b"/>
  <rect x="15" y="40" width="120" height="3" rx="1" fill="#cbd5e1"/>
  <rect x="15" y="55" width="180" height="1" fill="#e2e8f0"/>
  <rect x="15" y="65" width="35" height="4" rx="1" fill="#475569"/>
  <rect x="15" y="73" width="180" height="2" rx="1" fill="#64748b"/>
  <rect x="15" y="79" width="170" height="2" rx="1" fill="#64748b"/>
  <rect x="15" y="95" width="50" height="4" rx="1" fill="#475569"/>
  <rect x="15" y="103" width="60" height="3" rx="1" fill="#1e293b"/>
  <rect x="15" y="110" width="80" height="2" rx="1" fill="#cbd5e1"/>
  <rect x="15" y="116" width="175" height="2" rx="1" fill="#64748b"/>
  <rect x="15" y="122" width="165" height="2" rx="1" fill="#64748b"/>
  <rect x="15" y="128" width="170" height="2" rx="1" fill="#64748b"/>
  <rect x="15" y="145" width="40" height="4" rx="1" fill="#475569"/>
  <rect x="15" y="153" width="55" height="3" rx="1" fill="#1e293b"/>
  <rect x="15" y="160" width="70" height="2" rx="1" fill="#cbd5e1"/>
  <rect x="15" y="177" width="30" height="4" rx="1" fill="#475569"/>
  <rect x="15" y="185" width="180" height="2" rx="1" fill="#64748b"/>
</svg>