<svg xmlns="http://www.w3.org/2000/svg" width="400" height="566" viewBox="0 0 400 566">
  <rect width="400" height="566" fill="#f8fafc"/>
  <rect x="0" y="0" width="130" height="566" fill="#1e3a5f"/>
  <circle cx="65" cy="70" r="40" fill="#2d4a6f"/>
  <rect x="25" y="130" width="80" height="8" rx="2" fill="#ffffff"/>
  <rect x="25" y="150" width="60" height="6" rx="2" fill="#94a3b8"/>
  <rect x="25" y="200" width="80" height="6" rx="2" fill="#ffffff"/>
  <rect x="25" y="215" width="80" height="6" rx="2" fill="#94a3b8"/>
  <rect x="25" y="230" width="60" height="6" rx="2" fill="#94a3b8"/>
  <rect x="25" y="280" width="60" height="6" rx="2" fill="#ffffff"/>
  <rect x="25" y="295" width="80" height="6" rx="2" fill="#94a3b8"/>
  <rect x="150" y="40" width="200" height="16" rx="2" fill="#18181b"/>
  <rect x="150" y="65" width="150" height="8" rx="2" fill="#71717a"/>
  <rect x="150" y="110" width="80" height="10" rx="2" fill="#18181b"/>
  <rect x="150" y="130" width="220" height="6" rx="2" fill="#d4d4d8"/>
  <rect x="150" y="145" width="200" height="6" rx="2" fill="#d4d4d8"/>
  <rect x="150" y="160" width="210" height="6" rx="2" fill="#d4d4d8"/>
  <rect x="150" y="200" width="70" height="10" rx="2" fill="#18181b"/>
  <rect x="150" y="220" width="220" height="6" rx="2" fill="#d4d4d8"/>
  <rect x="150" y="235" width="190" height="6" rx="2" fill="#d4d4d8"/>
  <rect x="150" y="250" width="200" height="6" rx="2" fill="#d4d4d8"/>
  <rect x="150" y="295" width="90" height="10" rx="2" fill="#18181b"/>
  <rect x="150" y="315" width="220" height="6" rx="2" fill="#d4d4d8"/>
  <rect x="150" y="330" width="180" height="6" rx="2" fill="#d4d4d8"/>
  <text x="260" y="520" text-anchor="middle" font-family="system-ui" font-size="14" fill="#71717a">EU Classic</text>
</svg>