<svg xmlns="http://www.w3.org/2000/svg" viewBox="0 0 210 297" width="210" height="297">
  <rect width="210" height="297" fill="#ffffff"/>
  <rect width="210" height="40" fill="#0f4c81"/>
  <rect x="15" y="12" width="70" height="7" rx="2" fill="#ffffff"/>
  <rect x="15" y="23" width="45" height="4" rx="1" fill="#b8d4e8"/>
  <rect x="15" y="48" width="110" height="2" rx="1" fill="#64748b"/>
  <rect x="15" y="60" width="35" height="4" rx="1" fill="#0f4c81"/>
  <rect x="15" y="68" width="180" height="2" rx="1" fill="#475569"/>
  <rect x="15" y="74" width="170" height="2" rx="1" fill="#475569"/>
  <rect x="15" y="88" width="50" height="4" rx="1" fill="#0f4c81"/>
  <rect x="15" y="96" width="55" height="3" rx="1" fill="#334155"/>
  <rect x="15" y="102" width="75" height="2" rx="1" fill="#64748b"/>
  <rect x="15" y="108" width="175" height="2" rx="1" fill="#475569"/>
  <rect x="15" y="114" width="165" height="2" rx="1" fill="#475569"/>
  <rect x="15" y="120" width="170" height="2" rx="1" fill="#475569"/>
  <rect x="15" y="134" width="55" height="3" rx="1" fill="#334155"/>
  <rect x="15" y="140" width="75" height="2" rx="1" fill="#64748b"/>
  <rect x="15" y="146" width="175" height="2" rx="1" fill="#475569"/>
  <rect x="15" y="152" width="165" height="2" rx="1" fill="#475569"/>
  <rect x="15" y="170" width="35" height="4" rx="1" fill="#0f4c81"/>
  <rect x="15" y="178" width="50" height="3" rx="1" fill="#334155"/>
  <rect x="15" y="184" width="65" height="2" rx="1" fill="#64748b"/>
  <rect x="15" y="200" width="30" height="4" rx="1" fill="#0f4c81"/>
  <rect x="15" y="208" width="180" height="2" rx="1" fill="#475569"/>
</svg>