<svg xmlns="http://www.w3.org/2000/svg" width="400" height="566" viewBox="0 0 400 566">
  <rect width="400" height="566" fill="#18181b"/>
  <rect x="40" y="40" width="320" height="80" rx="4" fill="#27272a"/>
  <rect x="60" y="60" width="160" height="14" rx="2" fill="#fafafa"/>
  <rect x="60" y="85" width="120" height="8" rx="2" fill="#71717a"/>
  <circle cx="330" cy="80" r="25" fill="#3f3f46"/>
  <rect x="40" y="150" width="150" height="1" fill="#3f3f46"/>
  <rect x="40" y="170" width="80" height="10" rx="2" fill="#a1a1aa"/>
  <rect x="40" y="190" width="140" height="6" rx="2" fill="#52525b"/>
  <rect x="40" y="205" width="130" height="6" rx="2" fill="#52525b"/>
  <rect x="40" y="220" width="145" height="6" rx="2" fill="#52525b"/>
  <rect x="210" y="150" width="150" height="1" fill="#3f3f46"/>
  <rect x="210" y="170" width="70" height="10" rx="2" fill="#a1a1aa"/>
  <rect x="210" y="190" width="140" height="6" rx="2" fill="#52525b"/>
  <rect x="210" y="205" width="120" height="6" rx="2" fill="#52525b"/>
  <rect x="210" y="220" width="130" height="6" rx="2" fill="#52525b"/>
  <rect x="40" y="270" width="320" height="1" fill="#3f3f46"/>
  <rect x="40" y="290" width="100" height="10" rx="2" fill="#fafafa"/>
  <rect x="40" y="310" width="320" height="6" rx="2" fill="#52525b"/>
  <rect x="40" y="325" width="290" height="6" rx="2" fill="#52525b"/>
  <rect x="40" y="340" width="300" height="6" rx="2" fill="#52525b"/>
  <rect x="40" y="390" width="320" height="1" fill="#3f3f46"/>
  <rect x="40" y="410" width="60" height="10" rx="2" fill="#fafafa"/>
  <rect x="40" y="435" width="50" height="20" rx="10" fill="#3f3f46"/>
  <rect x="100" y="435" width="60" height="20" rx="10" fill="#3f3f46"/>
  <rect x="170" y="435" width="45" height="20" rx="10" fill="#3f3f46"/>
  <rect x="225" y="435" width="55" height="20" rx="10" fill="#3f3f46"/>
  <text x="200" y="520" text-anchor="middle" font-family="system-ui" font-size="14" fill="#71717a">Minimal Creative</text>
</svg>