<svg xmlns="http://www.w3.org/2000/svg" viewBox="0 0 210 297" width="210" height="297">
  <rect width="210" height="297" fill="#ffffff"/>
  <circle cx="-10" cy="-10" r="60" fill="#f3e8ff"/>
  <rect x="15" y="50" width="60" height="14" rx="2" fill="#1e293b"/>
  <rect x="15" y="68" width="45" height="14" rx="2" fill="#1e293b"/>
  <rect x="15" y="90" width="50" height="5" rx="1" fill="#6b7280"/>
  <rect x="15" y="105" width="70" height="3" rx="1" fill="#a855f7"/>
  <rect x="15" y="112" width="60" height="3" rx="1" fill="#a855f7"/>
  <rect x="15" y="119" width="55" height="3" rx="1" fill="#a855f7"/>
  <rect x="15" y="145" width="25" height="4" rx="1" fill="#9333ea"/>
  <rect x="15" y="155" width="175" height="3" rx="1" fill="#6b7280"/>
  <rect x="15" y="162" width="165" height="3" rx="1" fill="#6b7280"/>
  <rect x="15" y="185" width="40" height="4" rx="1" fill="#9333ea"/>
  <rect x="15" y="195" width="90" height="4" rx="1" fill="#1e293b"/>
  <rect x="15" y="203" width="40" height="3" rx="1" fill="#a855f7"/>
  <rect x="15" y="211" width="175" height="3" rx="1" fill="#6b7280"/>
  <rect x="15" y="218" width="160" height="3" rx="1" fill="#6b7280"/>
  <rect x="15" y="245" width="30" height="4" rx="1" fill="#9333ea"/>
  <rect x="15" y="255" width="180" height="3" rx="1" fill="#6b7280"/>
</svg>