<svg xmlns="http://www.w3.org/2000/svg" viewBox="0 0 210 297" width="210" height="297">
  <rect width="210" height="297" fill="#ffffff"/>
  <rect width="210" height="55" fill="#c2410c"/>
  <rect y="51" width="210" height="4" fill="#f97316"/>
  <rect x="15" y="15" width="90" height="10" rx="2" fill="#fff7ed"/>
  <rect x="15" y="30" width="55" height="5" rx="1" fill="#fdba74"/>
  <rect x="140" y="15" width="55" height="3" rx="1" fill="#fdba74"/>
  <rect x="140" y="22" width="50" height="3" rx="1" fill="#fdba74"/>
  <rect x="140" y="29" width="45" height="3" rx="1" fill="#fdba74"/>
  <rect x="15" y="70" width="35" height="5" rx="1" fill="#f97316"/>
  <rect x="15" y="80" width="85" height="3" rx="1" fill="#6b7280"/>
  <rect x="15" y="87" width="80" height="3" rx="1" fill="#6b7280"/>
  <rect x="15" y="105" width="45" height="5" rx="1" fill="#f97316"/>
  <rect x="15" y="115" width="55" height="4" rx="1" fill="#1f2937"/>
  <rect x="15" y="123" width="70" height="3" rx="1" fill="#fdba74"/>
  <rect x="15" y="131" width="85" height="3" rx="1" fill="#6b7280"/>
  <rect x="15" y="138" width="80" height="3" rx="1" fill="#6b7280"/>
  <rect x="115" y="70" width="40" height="5" rx="1" fill="#f97316"/>
  <rect x="115" y="80" width="55" height="4" rx="1" fill="#1f2937"/>
  <rect x="115" y="88" width="70" height="3" rx="1" fill="#fdba74"/>
  <rect x="115" y="105" width="30" height="5" rx="1" fill="#f97316"/>
  <rect x="115" y="115" width="75" height="3" rx="1" fill="#6b7280"/>
</svg>