<svg xmlns="http://www.w3.org/2000/svg" width="400" height="566" viewBox="0 0 400 566">
  <rect width="400" height="566" fill="#f8fafc"/>
  <rect x="0" y="0" width="400" height="100" fill="#0057b8"/>
  <rect x="0" y="100" width="400" height="8" fill="#ffd700"/>
  <circle cx="70" cy="170" r="45" fill="#e4e4e7" stroke="#d4d4d8" stroke-width="2"/>
  <rect x="140" y="135" width="200" height="16" rx="2" fill="#18181b"/>
  <rect x="140" y="160" width="150" height="8" rx="2" fill="#71717a"/>
  <rect x="140" y="180" width="120" height="6" rx="2" fill="#a1a1aa"/>
  <rect x="40" y="240" width="320" height="1" fill="#e4e4e7"/>
  <rect x="40" y="260" width="100" height="10" rx="2" fill="#0057b8"/>
  <rect x="40" y="280" width="320" height="6" rx="2" fill="#d4d4d8"/>
  <rect x="40" y="295" width="290" height="6" rx="2" fill="#d4d4d8"/>
  <rect x="40" y="310" width="300" height="6" rx="2" fill="#d4d4d8"/>
  <rect x="40" y="350" width="70" height="10" rx="2" fill="#0057b8"/>
  <rect x="40" y="370" width="320" height="6" rx="2" fill="#d4d4d8"/>
  <rect x="40" y="385" width="280" height="6" rx="2" fill="#d4d4d8"/>
  <rect x="40" y="400" width="310" height="6" rx="2" fill="#d4d4d8"/>
  <rect x="40" y="440" width="50" height="10" rx="2" fill="#0057b8"/>
  <rect x="40" y="460" width="60" height="20" rx="4" fill="#e4e4e7"/>
  <rect x="110" y="460" width="70" height="20" rx="4" fill="#e4e4e7"/>
  <rect x="190" y="460" width="50" height="20" rx="4" fill="#e4e4e7"/>
  <text x="200" y="530" text-anchor="middle" font-family="system-ui" font-size="14" fill="#71717a">UA Professional</text>
</svg>