<svg xmlns="http://www.w3.org/2000/svg" width="400" height="566" viewBox="0 0 400 566">
  <rect width="400" height="566" fill="#f8fafc"/>
  <rect x="40" y="40" width="320" height="50" rx="4" fill="#18181b"/>
  <rect x="40" y="110" width="200" height="8" rx="2" fill="#71717a"/>
  <rect x="40" y="130" width="160" height="8" rx="2" fill="#a1a1aa"/>
  <rect x="40" y="170" width="320" height="1" fill="#e4e4e7"/>
  <rect x="40" y="200" width="100" height="12" rx="2" fill="#18181b"/>
  <rect x="40" y="225" width="320" height="6" rx="2" fill="#d4d4d8"/>
  <rect x="40" y="240" width="290" height="6" rx="2" fill="#d4d4d8"/>
  <rect x="40" y="255" width="310" height="6" rx="2" fill="#d4d4d8"/>
  <rect x="40" y="300" width="80" height="12" rx="2" fill="#18181b"/>
  <rect x="40" y="325" width="320" height="6" rx="2" fill="#d4d4d8"/>
  <rect x="40" y="340" width="280" height="6" rx="2" fill="#d4d4d8"/>
  <rect x="40" y="355" width="300" height="6" rx="2" fill="#d4d4d8"/>
  <rect x="40" y="400" width="60" height="12" rx="2" fill="#18181b"/>
  <rect x="40" y="425" width="60" height="24" rx="4" fill="#e4e4e7"/>
  <rect x="110" y="425" width="70" height="24" rx="4" fill="#e4e4e7"/>
  <rect x="190" y="425" width="50" height="24" rx="4" fill="#e4e4e7"/>
  <text x="200" y="520" text-anchor="middle" font-family="system-ui" font-size="14" fill="#71717a">US Modern</text>
</svg>